# xmcd
#
# Track frame offsets:
# 150
# 13647
# 22781
# 31553
# 41489
# 51798
# 61080
# 68853
# 84053
# 90125
# 96252
# 105233
# 115250
# 126971
# 136670
# 140763
# 149930
# 156360
# 164024
# 172484
# 181501
# 191732
# 201697
# 208109
# 216564
# 227265
#
# Disc length: 3208 seconds
#
#
# Revision: 0
# Processed by: cddbd v1.5.2PL0 Copyright (c) Steve Scherf et al.
# Submitted via: FreeRIP 2.941 
#
DISCID=6d0c861a
DTITLE=파이디온 - 2007
DYEAR=2007
DGENRE=A Cappella
TTITLE0=위대한 이야기
TTITLE1=너를 통해
TTITLE2=주 앞에 나가자
TTITLE3=주님의 사랑
TTITLE4=신실하신 하나님
TTITLE5=날 새롭게
TTITLE6=다섯 개 밖에
TTITLE7=The Lord is my shepherd
TTITLE8=하늘 창고 열리면
TTITLE9=오뚝이처럼
TTITLE10=오늘도 조용히
TTITLE11=다음주에 만나요
TTITLE12=들어 보아요
TTITLE13=나 항상 노래하리
TTITLE14=예쁜마음
TTITLE15=담대하리
TTITLE16=믿음의 씨앗
TTITLE17=복
TTITLE18=주님의 손
TTITLE19=샘물
TTITLE20=주님을 따라서
TTITLE21=나의 주 나의 하나님
TTITLE22=한결같은 사랑으로
TTITLE23=주를 향해
TTITLE24=그 말씀 영원해
TTITLE25=위대한 이야기(MR)
EXTD=
EXTT0=
EXTT1=
EXTT2=
EXTT3=
EXTT4=
EXTT5=
EXTT6=
EXTT7=
EXTT8=
EXTT9=
EXTT10=
EXTT11=
EXTT12=
EXTT13=
EXTT14=
EXTT15=
EXTT16=
EXTT17=
EXTT18=
EXTT19=
EXTT20=
EXTT21=
EXTT22=
EXTT23=
EXTT24=
EXTT25=
PLAYORDER=
